# xmcd
#
# Track frame offsets:
#	150
#	24717
#	58270
#	78338
#	97887
#	122116
#	150670
#	173168
#	200165
#	222231
#
# Disc length: 3186 seconds
#
# Revision: 3
# Processed by: cddbd v1.5.1PL0 Copyright (c) Steve Scherf et al.
# Submitted via: EasyCDDAExtractor 5.1.0
#
DISCID=880c700a
DTITLE=Black Sabbath - The Forum Minneapolis 27-02-94 Disc 2
DYEAR=1994
DGENRE=Hard Rock
TTITLE0=Neon Knights
TTITLE1=Sabbath Bloody Sabbath
TTITLE2=Immaculate Deception
TTITLE3=The Wizard
TTITLE4=Cross Of Thorns
TTITLE5=Symptom Of The Universe
TTITLE6=Drum Solo
TTITLE7=Headless Cross
TTITLE8=Guitar Solo - Paranoid - Heaven And Hell (Reprise)
TTITLE9=Iron Man
EXTD=
EXTT0=
EXTT1=
EXTT2=
EXTT3=
EXTT4=
EXTT5=
EXTT6=
EXTT7=
EXTT8=
EXTT9=
PLAYORDER=
